# xmcd
#
# Track frame offsets:
# 150
# 28480
# 48525
# 69552
# 102352
# 132745
# 160075
# 198225
# 232865
# 260420
# 289447
#
# Disc length: 4170 seconds
#
#
# Revision: 0
# Processed by: cddbd v1.4PL0 Copyright (c) Steve Scherf et al.
# Submitted via: FreeRIP 2.00 
#
DISCID=a710480b
DTITLE=Mr. Rap - A Verdadeira Voz Do Brasil
DYEAR=2001
DGENRE=Rap
TTITLE0=O 5º Vigia - NdeeNaldinho
TTITLE1=Isso Aqui É Uma Guerra - Facção Central
TTITLE2=Apresento Meu Amigo - Thaide and Dj hum
TTITLE3=Televisão - Face Da Morte
TTITLE4=Som Na Quebrada - Expressão Ativa
TTITLE5=Nocaute - Império
TTITLE6=Dez Anos Perdidos - Condenação Brutal
TTITLE7=1-2,1-2 Drão - De Menos Crime
TTITLE8=Funeral (versão rapida) - Cartel Central
TTITLE9=Rap Treme O Chão - Realidade Cruel
TTITLE10=Durma Com Os Anjos - Produto De Rua
EXTD=Ripped By Tr4ck3r
EXTT0=
EXTT1=
EXTT2=
EXTT3=
EXTT4=
EXTT5=
EXTT6=
EXTT7=
EXTT8=
EXTT9=
EXTT10=
PLAYORDER=
